<svg xmlns="http://www.w3.org/2000/svg" xmlns:xlink="http://www.w3.org/1999/xlink" width="500" zoomAndPan="magnify" viewBox="0 0 375 374.999991" height="500" preserveAspectRatio="xMidYMid meet" version="1.0"><defs><clipPath id="3960b71e6b"><path d="M 113.449219 87.679688 L 261 87.679688 L 261 287.179688 L 113.449219 287.179688 Z M 113.449219 87.679688 " clip-rule="nonzero"/></clipPath></defs><rect x="-37.5" width="450" fill="#ffffff" y="-37.499999" height="449.999989" fill-opacity="1"/><rect x="-37.5" width="450" fill="#ffffff" y="-37.499999" height="449.999989" fill-opacity="1"/><g clip-path="url(#3960b71e6b)"><path fill="#8c52ff" d="M 257.335938 87.679688 L 135.210938 87.679688 C 134.515625 87.679688 133.820312 87.714844 133.128906 87.785156 C 132.4375 87.851562 131.75 87.957031 131.070312 88.09375 C 130.386719 88.230469 129.714844 88.398438 129.050781 88.601562 C 128.382812 88.804688 127.730469 89.039062 127.089844 89.304688 C 126.445312 89.570312 125.820312 89.867188 125.207031 90.195312 C 124.59375 90.523438 123.996094 90.882812 123.417969 91.269531 C 122.839844 91.65625 122.285156 92.070312 121.746094 92.507812 C 121.210938 92.949219 120.695312 93.417969 120.203125 93.910156 C 119.710938 94.402344 119.246094 94.914062 118.804688 95.453125 C 118.363281 95.988281 117.949219 96.546875 117.5625 97.125 C 117.175781 97.703125 116.820312 98.296875 116.492188 98.910156 C 116.164062 99.523438 115.863281 100.152344 115.597656 100.792969 C 115.332031 101.4375 115.097656 102.089844 114.894531 102.753906 C 114.691406 103.421875 114.523438 104.09375 114.386719 104.773438 C 114.25 105.457031 114.148438 106.144531 114.078125 106.835938 C 114.007812 107.527344 113.972656 108.222656 113.972656 108.917969 L 113.972656 260.367188 C 113.972656 260.945312 114 261.519531 114.058594 262.09375 C 114.113281 262.667969 114.199219 263.234375 114.308594 263.800781 C 114.421875 264.367188 114.5625 264.925781 114.730469 265.476562 C 114.898438 266.027344 115.089844 266.570312 115.3125 267.105469 C 115.53125 267.636719 115.777344 268.15625 116.046875 268.664062 C 116.320312 269.175781 116.617188 269.667969 116.933594 270.148438 C 117.253906 270.628906 117.597656 271.089844 117.964844 271.535156 C 118.328125 271.980469 118.714844 272.410156 119.121094 272.816406 C 119.53125 273.226562 119.957031 273.613281 120.402344 273.976562 C 120.847656 274.34375 121.308594 274.6875 121.785156 275.007812 C 122.265625 275.328125 122.757812 275.625 123.265625 275.898438 C 123.777344 276.171875 124.296875 276.417969 124.828125 276.640625 C 125.359375 276.859375 125.902344 277.054688 126.453125 277.222656 C 127.003906 277.390625 127.5625 277.53125 128.128906 277.644531 C 128.695312 277.761719 129.261719 277.84375 129.835938 277.902344 C 130.410156 277.960938 130.984375 277.988281 131.5625 277.992188 L 142.851562 277.992188 L 142.851562 283.875 C 142.867188 284.15625 142.917969 284.433594 143 284.699219 C 143.082031 284.96875 143.199219 285.222656 143.34375 285.464844 C 143.488281 285.703125 143.660156 285.921875 143.859375 286.121094 C 144.058594 286.320312 144.277344 286.492188 144.519531 286.636719 C 144.761719 286.777344 145.015625 286.890625 145.285156 286.972656 C 145.554688 287.054688 145.828125 287.105469 146.109375 287.117188 C 146.390625 287.132812 146.667969 287.113281 146.945312 287.0625 C 147.21875 287.007812 147.484375 286.921875 147.738281 286.800781 L 154.625 282.980469 L 161.507812 286.800781 C 162.035156 287.128906 162.609375 287.300781 163.230469 287.320312 C 163.683594 287.320312 164.125 287.230469 164.546875 287.058594 C 164.96875 286.882812 165.339844 286.632812 165.664062 286.3125 C 165.984375 285.988281 166.234375 285.617188 166.410156 285.195312 C 166.582031 284.773438 166.671875 284.332031 166.671875 283.875 L 166.671875 277.957031 L 257.335938 277.957031 C 257.792969 277.957031 258.230469 277.871094 258.652344 277.695312 C 259.074219 277.519531 259.445312 277.269531 259.769531 276.949219 C 260.09375 276.625 260.339844 276.253906 260.515625 275.832031 C 260.691406 275.410156 260.777344 274.972656 260.777344 274.515625 L 260.777344 91.121094 C 260.777344 90.664062 260.691406 90.226562 260.515625 89.804688 C 260.339844 89.382812 260.09375 89.007812 259.769531 88.6875 C 259.445312 88.363281 259.074219 88.113281 258.652344 87.941406 C 258.230469 87.765625 257.792969 87.679688 257.335938 87.679688 Z M 120.617188 108.917969 C 120.617188 108.097656 120.6875 107.289062 120.824219 106.484375 C 120.964844 105.679688 121.167969 104.890625 121.4375 104.121094 C 121.707031 103.347656 122.042969 102.605469 122.4375 101.890625 C 122.832031 101.175781 123.285156 100.5 123.792969 99.859375 C 124.300781 99.222656 124.859375 98.628906 125.46875 98.082031 C 126.074219 97.539062 126.726562 97.046875 127.414062 96.613281 C 128.105469 96.175781 128.828125 95.800781 129.582031 95.484375 C 130.335938 95.167969 131.109375 94.917969 131.90625 94.734375 L 131.90625 242.742188 L 131.5625 242.742188 C 129.566406 242.757812 127.632812 243.101562 125.753906 243.773438 C 123.878906 244.445312 122.164062 245.410156 120.617188 246.667969 Z M 160.027344 278.371094 L 156.34375 276.375 C 155.851562 276.097656 155.324219 275.960938 154.761719 275.960938 C 154.199219 275.960938 153.667969 276.097656 153.179688 276.375 L 149.460938 278.371094 L 149.460938 263.671875 L 159.992188 263.671875 Z M 254.03125 271.484375 L 166.671875 271.484375 L 166.671875 260.332031 C 166.671875 259.875 166.582031 259.4375 166.410156 259.015625 C 166.234375 258.59375 165.984375 258.222656 165.664062 257.898438 C 165.339844 257.578125 164.96875 257.328125 164.546875 257.152344 C 164.125 256.976562 163.683594 256.890625 163.230469 256.890625 L 146.019531 256.890625 C 145.5625 256.890625 145.121094 256.976562 144.699219 257.152344 C 144.28125 257.328125 143.90625 257.578125 143.585938 257.898438 C 143.261719 258.222656 143.011719 258.59375 142.839844 259.015625 C 142.664062 259.4375 142.578125 259.875 142.578125 260.332031 L 142.578125 271.3125 L 131.5625 271.3125 C 130.816406 271.355469 130.074219 271.320312 129.335938 271.210938 C 128.597656 271.101562 127.875 270.917969 127.175781 270.664062 C 126.472656 270.40625 125.804688 270.082031 125.171875 269.6875 C 124.535156 269.296875 123.945312 268.84375 123.402344 268.328125 C 122.859375 267.816406 122.375 267.253906 121.949219 266.640625 C 121.519531 266.027344 121.15625 265.378906 120.863281 264.695312 C 120.566406 264.007812 120.34375 263.300781 120.191406 262.566406 C 120.042969 261.835938 119.96875 261.097656 119.96875 260.351562 C 119.96875 259.601562 120.042969 258.863281 120.191406 258.132812 C 120.34375 257.402344 120.566406 256.691406 120.863281 256.007812 C 121.15625 255.320312 121.519531 254.671875 121.949219 254.058594 C 122.375 253.449219 122.859375 252.886719 123.402344 252.371094 C 123.945312 251.859375 124.535156 251.40625 125.171875 251.011719 C 125.804688 250.621094 126.472656 250.296875 127.175781 250.039062 C 127.875 249.78125 128.597656 249.597656 129.335938 249.488281 C 130.074219 249.378906 130.816406 249.34375 131.5625 249.386719 L 254.03125 249.386719 Z M 254.03125 242.917969 L 138.550781 242.917969 L 138.550781 94.320312 L 254.03125 94.320312 Z M 254.03125 242.917969 " fill-opacity="1" fill-rule="nonzero"/></g><path fill="#8c52ff" d="M 153.730469 160.996094 L 230.660156 160.996094 C 231.117188 160.996094 231.554688 160.90625 231.976562 160.734375 C 232.398438 160.558594 232.769531 160.308594 233.09375 159.988281 C 233.414062 159.664062 233.664062 159.292969 233.839844 158.871094 C 234.015625 158.449219 234.101562 158.007812 234.101562 157.550781 L 234.101562 127.605469 C 234.101562 127.148438 234.015625 126.710938 233.839844 126.289062 C 233.664062 125.867188 233.414062 125.496094 233.09375 125.171875 C 232.769531 124.851562 232.398438 124.601562 231.976562 124.425781 C 231.554688 124.25 231.117188 124.164062 230.660156 124.164062 L 153.730469 124.164062 C 153.273438 124.164062 152.832031 124.25 152.410156 124.425781 C 151.988281 124.601562 151.617188 124.851562 151.292969 125.171875 C 150.972656 125.496094 150.722656 125.867188 150.546875 126.289062 C 150.375 126.710938 150.285156 127.148438 150.285156 127.605469 L 150.285156 157.65625 C 150.300781 158.101562 150.398438 158.53125 150.578125 158.941406 C 150.757812 159.351562 151.007812 159.710938 151.332031 160.023438 C 151.652344 160.335938 152.019531 160.574219 152.433594 160.742188 C 152.851562 160.910156 153.28125 160.996094 153.730469 160.996094 Z M 157.171875 130.910156 L 227.355469 130.910156 L 227.355469 154.316406 L 157.03125 154.316406 Z M 157.171875 130.910156 " fill-opacity="1" fill-rule="nonzero"/></svg>